<svg width="945" height="655" viewBox="0 0 945 655" fill="none" xmlns="http://www.w3.org/2000/svg">
<rect width="945" height="655" fill="#0E0F11"/>
<line x1="340" y1="327.5" x2="945" y2="327.5" stroke="#EEF35F" stroke-dasharray="17 17"/>
<rect x="488.5" y="295.5" width="198" height="64" rx="32" fill="#0E0F11" stroke="#EEF35F"/>
<circle cx="350" cy="328" r="10" fill="#0EA5E9"/>
<path d="M546.884 318.545V336H543.722V318.545H546.884ZM555.029 336.23C554.001 336.23 553.08 335.966 552.268 335.438C551.455 334.909 550.813 334.142 550.342 333.136C549.87 332.131 549.634 330.909 549.634 329.472C549.634 328.017 549.873 326.79 550.35 325.79C550.833 324.784 551.484 324.026 552.302 323.514C553.12 322.997 554.032 322.739 555.038 322.739C555.805 322.739 556.435 322.869 556.93 323.131C557.424 323.386 557.816 323.696 558.106 324.06C558.396 324.418 558.62 324.756 558.779 325.074H558.907V318.545H562.001V336H558.967V333.938H558.779C558.62 334.256 558.39 334.594 558.089 334.952C557.788 335.304 557.39 335.605 556.896 335.855C556.401 336.105 555.779 336.23 555.029 336.23ZM555.89 333.699C556.543 333.699 557.1 333.523 557.56 333.17C558.021 332.812 558.37 332.315 558.609 331.679C558.847 331.043 558.967 330.301 558.967 329.455C558.967 328.608 558.847 327.872 558.609 327.247C558.376 326.622 558.029 326.136 557.569 325.79C557.114 325.443 556.555 325.27 555.89 325.27C555.202 325.27 554.629 325.449 554.168 325.807C553.708 326.165 553.362 326.659 553.129 327.29C552.896 327.92 552.779 328.642 552.779 329.455C552.779 330.273 552.896 331.003 553.129 331.645C553.367 332.281 553.717 332.784 554.177 333.153C554.643 333.517 555.214 333.699 555.89 333.699ZM571.084 336.256C569.771 336.256 568.638 335.983 567.683 335.438C566.734 334.886 566.004 334.108 565.493 333.102C564.982 332.091 564.726 330.901 564.726 329.531C564.726 328.185 564.982 327.003 565.493 325.986C566.01 324.963 566.732 324.168 567.658 323.599C568.584 323.026 569.672 322.739 570.922 322.739C571.729 322.739 572.49 322.869 573.206 323.131C573.928 323.386 574.564 323.784 575.115 324.324C575.672 324.864 576.109 325.551 576.428 326.386C576.746 327.216 576.905 328.205 576.905 329.352V330.298H566.175V328.219H573.947C573.942 327.628 573.814 327.102 573.564 326.642C573.314 326.176 572.964 325.81 572.516 325.543C572.072 325.276 571.555 325.142 570.964 325.142C570.334 325.142 569.78 325.295 569.303 325.602C568.825 325.903 568.453 326.301 568.186 326.795C567.925 327.284 567.791 327.821 567.786 328.406V330.222C567.786 330.983 567.925 331.636 568.203 332.182C568.482 332.722 568.871 333.136 569.371 333.426C569.871 333.71 570.456 333.852 571.126 333.852C571.575 333.852 571.982 333.79 572.345 333.665C572.709 333.534 573.024 333.344 573.291 333.094C573.558 332.844 573.76 332.534 573.896 332.165L576.777 332.489C576.595 333.25 576.249 333.915 575.737 334.483C575.232 335.045 574.584 335.483 573.794 335.795C573.004 336.102 572.101 336.256 571.084 336.256ZM583.282 336.264C582.452 336.264 581.705 336.116 581.04 335.821C580.381 335.52 579.859 335.077 579.472 334.491C579.092 333.906 578.901 333.185 578.901 332.327C578.901 331.588 579.038 330.977 579.31 330.494C579.583 330.011 579.955 329.625 580.427 329.335C580.898 329.045 581.43 328.827 582.021 328.679C582.617 328.526 583.234 328.415 583.87 328.347C584.637 328.267 585.259 328.196 585.737 328.134C586.214 328.065 586.56 327.963 586.776 327.827C586.998 327.685 587.109 327.466 587.109 327.17V327.119C587.109 326.477 586.918 325.98 586.538 325.628C586.157 325.276 585.609 325.099 584.893 325.099C584.137 325.099 583.538 325.264 583.094 325.594C582.657 325.923 582.362 326.312 582.208 326.761L579.327 326.352C579.555 325.557 579.93 324.892 580.452 324.358C580.975 323.818 581.614 323.415 582.37 323.148C583.126 322.875 583.961 322.739 584.876 322.739C585.506 322.739 586.134 322.812 586.759 322.96C587.384 323.108 587.955 323.352 588.472 323.693C588.989 324.028 589.404 324.486 589.717 325.065C590.035 325.645 590.194 326.369 590.194 327.239V336H587.228V334.202H587.126C586.938 334.565 586.674 334.906 586.333 335.224C585.998 335.537 585.575 335.79 585.063 335.983C584.558 336.17 583.964 336.264 583.282 336.264ZM584.083 333.997C584.702 333.997 585.239 333.875 585.694 333.631C586.148 333.381 586.498 333.051 586.742 332.642C586.992 332.233 587.117 331.787 587.117 331.304V329.761C587.021 329.841 586.856 329.915 586.623 329.983C586.396 330.051 586.14 330.111 585.856 330.162C585.572 330.213 585.29 330.259 585.012 330.298C584.734 330.338 584.492 330.372 584.288 330.401C583.827 330.463 583.415 330.565 583.052 330.707C582.688 330.849 582.401 331.048 582.191 331.304C581.981 331.554 581.876 331.878 581.876 332.276C581.876 332.844 582.083 333.273 582.498 333.562C582.913 333.852 583.441 333.997 584.083 333.997ZM599.833 322.909V325.295H592.308V322.909H599.833ZM594.165 319.773H597.251V332.062C597.251 332.477 597.313 332.795 597.438 333.017C597.569 333.233 597.739 333.381 597.95 333.46C598.16 333.54 598.393 333.58 598.648 333.58C598.842 333.58 599.018 333.565 599.177 333.537C599.342 333.509 599.467 333.483 599.552 333.46L600.072 335.872C599.907 335.929 599.671 335.991 599.364 336.06C599.063 336.128 598.694 336.168 598.256 336.179C597.484 336.202 596.788 336.085 596.168 335.83C595.549 335.568 595.058 335.165 594.694 334.619C594.336 334.074 594.16 333.392 594.165 332.574V319.773ZM602.413 336V322.909H605.499V336H602.413ZM603.964 321.051C603.476 321.051 603.055 320.889 602.703 320.565C602.351 320.236 602.175 319.841 602.175 319.381C602.175 318.915 602.351 318.52 602.703 318.196C603.055 317.866 603.476 317.702 603.964 317.702C604.459 317.702 604.879 317.866 605.226 318.196C605.578 318.52 605.754 318.915 605.754 319.381C605.754 319.841 605.578 320.236 605.226 320.565C604.879 320.889 604.459 321.051 603.964 321.051ZM614.381 336.256C613.103 336.256 611.995 335.974 611.058 335.412C610.12 334.849 609.393 334.062 608.876 333.051C608.364 332.04 608.109 330.858 608.109 329.506C608.109 328.153 608.364 326.969 608.876 325.952C609.393 324.935 610.12 324.145 611.058 323.582C611.995 323.02 613.103 322.739 614.381 322.739C615.66 322.739 616.768 323.02 617.705 323.582C618.643 324.145 619.367 324.935 619.879 325.952C620.396 326.969 620.654 328.153 620.654 329.506C620.654 330.858 620.396 332.04 619.879 333.051C619.367 334.062 618.643 334.849 617.705 335.412C616.768 335.974 615.66 336.256 614.381 336.256ZM614.398 333.784C615.092 333.784 615.671 333.594 616.137 333.213C616.603 332.827 616.95 332.31 617.177 331.662C617.41 331.014 617.526 330.293 617.526 329.497C617.526 328.696 617.41 327.972 617.177 327.324C616.95 326.67 616.603 326.151 616.137 325.764C615.671 325.378 615.092 325.185 614.398 325.185C613.688 325.185 613.097 325.378 612.626 325.764C612.16 326.151 611.81 326.67 611.577 327.324C611.35 327.972 611.237 328.696 611.237 329.497C611.237 330.293 611.35 331.014 611.577 331.662C611.81 332.31 612.16 332.827 612.626 333.213C613.097 333.594 613.688 333.784 614.398 333.784ZM626.358 328.33V336H623.273V322.909H626.222V325.134H626.375C626.676 324.401 627.156 323.818 627.815 323.386C628.48 322.955 629.301 322.739 630.278 322.739C631.182 322.739 631.969 322.932 632.639 323.318C633.315 323.705 633.838 324.264 634.207 324.997C634.582 325.73 634.767 326.619 634.761 327.665V336H631.676V328.142C631.676 327.267 631.449 326.582 630.994 326.088C630.545 325.594 629.923 325.347 629.128 325.347C628.588 325.347 628.108 325.466 627.688 325.705C627.273 325.937 626.946 326.276 626.707 326.719C626.474 327.162 626.358 327.699 626.358 328.33Z" fill="#EEF35F"/>
<line x1="589.5" y1="360" x2="589.5" y2="507" stroke="#EEF35F" stroke-dasharray="17 17"/>
<line x1="589.999" y1="506.01" x2="845.001" y2="506.01" stroke="#EEF35F" stroke-dasharray="17 17"/>
<path d="M945 473H877.5C859.551 473 845 487.551 845 505.5V505.5C845 523.449 859.551 538 877.5 538H945" stroke="#EEF35F"/>
<path d="M907.722 514V496.545H914.267C915.608 496.545 916.733 496.795 917.642 497.295C918.557 497.795 919.247 498.483 919.713 499.358C920.185 500.227 920.42 501.216 920.42 502.324C920.42 503.443 920.185 504.437 919.713 505.307C919.241 506.176 918.545 506.861 917.625 507.361C916.705 507.855 915.571 508.102 914.224 508.102H909.886V505.503H913.798C914.582 505.503 915.224 505.366 915.724 505.094C916.224 504.821 916.594 504.446 916.832 503.969C917.077 503.491 917.199 502.943 917.199 502.324C917.199 501.705 917.077 501.159 916.832 500.688C916.594 500.216 916.222 499.849 915.716 499.588C915.216 499.321 914.571 499.188 913.781 499.188H910.884V514H907.722ZM923.031 514V500.909H926.022V503.091H926.158C926.397 502.335 926.806 501.753 927.386 501.344C927.971 500.929 928.638 500.722 929.388 500.722C929.559 500.722 929.749 500.73 929.96 500.747C930.175 500.759 930.354 500.778 930.496 500.807V503.645C930.366 503.599 930.158 503.56 929.874 503.526C929.596 503.486 929.326 503.466 929.065 503.466C928.502 503.466 927.996 503.588 927.548 503.832C927.104 504.071 926.755 504.403 926.499 504.83C926.244 505.256 926.116 505.747 926.116 506.304V514H923.031ZM937.717 514.256C936.439 514.256 935.331 513.974 934.393 513.412C933.456 512.849 932.729 512.062 932.212 511.051C931.7 510.04 931.445 508.858 931.445 507.506C931.445 506.153 931.7 504.969 932.212 503.952C932.729 502.935 933.456 502.145 934.393 501.582C935.331 501.02 936.439 500.739 937.717 500.739C938.996 500.739 940.104 501.02 941.041 501.582C941.979 502.145 942.703 502.935 943.214 503.952C943.732 504.969 943.99 506.153 943.99 507.506C943.99 508.858 943.732 510.04 943.214 511.051C942.703 512.062 941.979 512.849 941.041 513.412C940.104 513.974 938.996 514.256 937.717 514.256ZM937.734 511.784C938.428 511.784 939.007 511.594 939.473 511.213C939.939 510.827 940.286 510.31 940.513 509.662C940.746 509.014 940.862 508.293 940.862 507.497C940.862 506.696 940.746 505.972 940.513 505.324C940.286 504.67 939.939 504.151 939.473 503.764C939.007 503.378 938.428 503.185 937.734 503.185C937.024 503.185 936.433 503.378 935.962 503.764C935.496 504.151 935.146 504.67 934.913 505.324C934.686 505.972 934.572 506.696 934.572 507.497C934.572 508.293 934.686 509.014 934.913 509.662C935.146 510.31 935.496 510.827 935.962 511.213C936.433 511.594 937.024 511.784 937.734 511.784Z" fill="#EEF35F"/>
<circle cx="590" cy="506" r="10" fill="#2EFF0C"/>
<path d="M160.749 351C159.487 345.591 153.793 341.164 151.454 338.247C146.79 332.426 144 325.039 144 317C144 298.222 159.222 283 178 283C196.778 283 212 298.222 212 317C212 325.043 209.207 332.434 204.538 338.256C202.201 341.17 196.512 345.592 195.251 351H160.749ZM195 359.5V363.75C195 368.445 191.195 372.25 186.5 372.25H169.5C164.806 372.25 161 368.445 161 363.75V359.5H195ZM182.25 317.02V300L163.125 325.52H173.75V342.52L192.875 317.02H182.25Z" fill="#EEF35F"/>
</svg>
