<svg width="945" height="655" viewBox="0 0 945 655" fill="none" xmlns="http://www.w3.org/2000/svg">
<rect width="945" height="655" fill="#0E0F11"/>
<line x1="340" y1="327.5" x2="945" y2="327.5" stroke="#EEF35F" stroke-dasharray="17 17"/>
<rect x="488.5" y="295.5" width="198" height="64" rx="32" fill="#0E0F11" stroke="#EEF35F"/>
<circle cx="350" cy="328" r="10" fill="#0EF3F3"/>
<path d="M532.884 318.545V336H529.722V318.545H532.884ZM536.171 336V322.909H539.12V325.134H539.273C539.546 324.384 539.998 323.798 540.629 323.378C541.259 322.952 542.012 322.739 542.887 322.739C543.773 322.739 544.521 322.955 545.129 323.386C545.742 323.812 546.174 324.395 546.424 325.134H546.56C546.85 324.406 547.339 323.827 548.026 323.395C548.719 322.957 549.54 322.739 550.489 322.739C551.694 322.739 552.677 323.119 553.438 323.881C554.2 324.642 554.58 325.753 554.58 327.213V336H551.487V327.69C551.487 326.878 551.271 326.284 550.839 325.909C550.407 325.528 549.879 325.338 549.254 325.338C548.509 325.338 547.927 325.571 547.506 326.037C547.092 326.497 546.884 327.097 546.884 327.835V336H543.859V327.562C543.859 326.886 543.654 326.347 543.245 325.943C542.842 325.54 542.313 325.338 541.66 325.338C541.217 325.338 540.813 325.452 540.45 325.679C540.086 325.901 539.796 326.216 539.58 326.625C539.364 327.028 539.256 327.5 539.256 328.04V336H536.171ZM557.71 340.909V322.909H560.744V325.074H560.923C561.082 324.756 561.307 324.418 561.597 324.06C561.886 323.696 562.278 323.386 562.773 323.131C563.267 322.869 563.898 322.739 564.665 322.739C565.676 322.739 566.588 322.997 567.401 323.514C568.219 324.026 568.866 324.784 569.344 325.79C569.827 326.79 570.068 328.017 570.068 329.472C570.068 330.909 569.832 332.131 569.361 333.136C568.889 334.142 568.247 334.909 567.435 335.438C566.622 335.966 565.702 336.23 564.673 336.23C563.923 336.23 563.301 336.105 562.807 335.855C562.313 335.605 561.915 335.304 561.614 334.952C561.318 334.594 561.088 334.256 560.923 333.938H560.795V340.909H557.71ZM560.736 329.455C560.736 330.301 560.855 331.043 561.094 331.679C561.338 332.315 561.688 332.812 562.142 333.17C562.602 333.523 563.159 333.699 563.812 333.699C564.494 333.699 565.065 333.517 565.526 333.153C565.986 332.784 566.332 332.281 566.565 331.645C566.804 331.003 566.923 330.273 566.923 329.455C566.923 328.642 566.807 327.92 566.574 327.29C566.341 326.659 565.994 326.165 565.534 325.807C565.074 325.449 564.5 325.27 563.812 325.27C563.153 325.27 562.594 325.443 562.134 325.79C561.673 326.136 561.324 326.622 561.085 327.247C560.852 327.872 560.736 328.608 560.736 329.455ZM575.795 318.545V336H572.71V318.545H575.795ZM584.763 336.256C583.451 336.256 582.317 335.983 581.363 335.438C580.414 334.886 579.684 334.108 579.173 333.102C578.661 332.091 578.406 330.901 578.406 329.531C578.406 328.185 578.661 327.003 579.173 325.986C579.69 324.963 580.411 324.168 581.337 323.599C582.263 323.026 583.352 322.739 584.602 322.739C585.408 322.739 586.17 322.869 586.886 323.131C587.607 323.386 588.244 323.784 588.795 324.324C589.352 324.864 589.789 325.551 590.107 326.386C590.425 327.216 590.585 328.205 590.585 329.352V330.298H579.854V328.219H587.627C587.621 327.628 587.494 327.102 587.244 326.642C586.994 326.176 586.644 325.81 586.195 325.543C585.752 325.276 585.235 325.142 584.644 325.142C584.013 325.142 583.46 325.295 582.982 325.602C582.505 325.903 582.133 326.301 581.866 326.795C581.604 327.284 581.471 327.821 581.465 328.406V330.222C581.465 330.983 581.604 331.636 581.883 332.182C582.161 332.722 582.55 333.136 583.05 333.426C583.55 333.71 584.136 333.852 584.806 333.852C585.255 333.852 585.661 333.79 586.025 333.665C586.388 333.534 586.704 333.344 586.971 333.094C587.238 332.844 587.44 332.534 587.576 332.165L590.457 332.489C590.275 333.25 589.928 333.915 589.417 334.483C588.911 335.045 588.263 335.483 587.474 335.795C586.684 336.102 585.781 336.256 584.763 336.256ZM593.195 336V322.909H596.143V325.134H596.297C596.57 324.384 597.021 323.798 597.652 323.378C598.283 322.952 599.036 322.739 599.911 322.739C600.797 322.739 601.544 322.955 602.152 323.386C602.766 323.812 603.197 324.395 603.447 325.134H603.584C603.874 324.406 604.362 323.827 605.05 323.395C605.743 322.957 606.564 322.739 607.513 322.739C608.717 322.739 609.7 323.119 610.462 323.881C611.223 324.642 611.604 325.753 611.604 327.213V336H608.51V327.69C608.51 326.878 608.294 326.284 607.862 325.909C607.43 325.528 606.902 325.338 606.277 325.338C605.533 325.338 604.95 325.571 604.53 326.037C604.115 326.497 603.908 327.097 603.908 327.835V336H600.882V327.562C600.882 326.886 600.678 326.347 600.268 325.943C599.865 325.54 599.337 325.338 598.683 325.338C598.24 325.338 597.837 325.452 597.473 325.679C597.109 325.901 596.82 326.216 596.604 326.625C596.388 327.028 596.28 327.5 596.28 328.04V336H593.195ZM620.529 336.256C619.217 336.256 618.083 335.983 617.129 335.438C616.18 334.886 615.45 334.108 614.938 333.102C614.427 332.091 614.171 330.901 614.171 329.531C614.171 328.185 614.427 327.003 614.938 325.986C615.455 324.963 616.177 324.168 617.103 323.599C618.029 323.026 619.117 322.739 620.367 322.739C621.174 322.739 621.935 322.869 622.651 323.131C623.373 323.386 624.009 323.784 624.56 324.324C625.117 324.864 625.555 325.551 625.873 326.386C626.191 327.216 626.35 328.205 626.35 329.352V330.298H615.62V328.219H623.393C623.387 327.628 623.259 327.102 623.009 326.642C622.759 326.176 622.41 325.81 621.961 325.543C621.518 325.276 621.001 325.142 620.41 325.142C619.779 325.142 619.225 325.295 618.748 325.602C618.271 325.903 617.898 326.301 617.631 326.795C617.37 327.284 617.237 327.821 617.231 328.406V330.222C617.231 330.983 617.37 331.636 617.648 332.182C617.927 332.722 618.316 333.136 618.816 333.426C619.316 333.71 619.901 333.852 620.572 333.852C621.021 333.852 621.427 333.79 621.79 333.665C622.154 333.534 622.469 333.344 622.737 333.094C623.004 332.844 623.205 332.534 623.342 332.165L626.222 332.489C626.04 333.25 625.694 333.915 625.183 334.483C624.677 335.045 624.029 335.483 623.239 335.795C622.45 336.102 621.546 336.256 620.529 336.256ZM632.045 328.33V336H628.96V322.909H631.909V325.134H632.062C632.364 324.401 632.844 323.818 633.503 323.386C634.168 322.955 634.989 322.739 635.966 322.739C636.869 322.739 637.656 322.932 638.327 323.318C639.003 323.705 639.526 324.264 639.895 324.997C640.27 325.73 640.455 326.619 640.449 327.665V336H637.364V328.142C637.364 327.267 637.136 326.582 636.682 326.088C636.233 325.594 635.611 325.347 634.815 325.347C634.276 325.347 633.795 325.466 633.375 325.705C632.96 325.937 632.634 326.276 632.395 326.719C632.162 327.162 632.045 327.699 632.045 328.33ZM650.122 322.909V325.295H642.597V322.909H650.122ZM644.455 319.773H647.54V332.062C647.54 332.477 647.602 332.795 647.727 333.017C647.858 333.233 648.028 333.381 648.239 333.46C648.449 333.54 648.682 333.58 648.938 333.58C649.131 333.58 649.307 333.565 649.466 333.537C649.631 333.509 649.756 333.483 649.841 333.46L650.361 335.872C650.196 335.929 649.96 335.991 649.653 336.06C649.352 336.128 648.983 336.168 648.545 336.179C647.773 336.202 647.077 336.085 646.457 335.83C645.838 335.568 645.347 335.165 644.983 334.619C644.625 334.074 644.449 333.392 644.455 332.574V319.773Z" fill="#EEF35F"/>
<line x1="589.5" y1="360" x2="589.5" y2="507" stroke="#EEF35F" stroke-dasharray="17 17"/>
<line x1="589.999" y1="506.01" x2="845.001" y2="506.01" stroke="#EEF35F" stroke-dasharray="17 17"/>
<path d="M945 473H877.5C859.551 473 845 487.551 845 505.5V505.5C845 523.449 859.551 538 877.5 538H945" stroke="#EEF35F"/>
<path d="M902.722 514V496.545H909.267C910.608 496.545 911.733 496.778 912.642 497.244C913.557 497.71 914.247 498.364 914.713 499.205C915.185 500.04 915.42 501.014 915.42 502.128C915.42 503.247 915.182 504.219 914.705 505.043C914.233 505.861 913.537 506.494 912.616 506.943C911.696 507.386 910.565 507.608 909.224 507.608H904.562V504.983H908.798C909.582 504.983 910.224 504.875 910.724 504.659C911.224 504.437 911.594 504.116 911.832 503.696C912.077 503.27 912.199 502.747 912.199 502.128C912.199 501.509 912.077 500.98 911.832 500.543C911.588 500.099 911.216 499.764 910.716 499.537C910.216 499.304 909.571 499.188 908.781 499.188H905.884V514H902.722ZM911.739 506.091L916.06 514H912.531L908.287 506.091H911.739ZM923.803 514.256C922.49 514.256 921.357 513.983 920.402 513.438C919.453 512.886 918.723 512.108 918.212 511.102C917.7 510.091 917.445 508.901 917.445 507.531C917.445 506.185 917.7 505.003 918.212 503.986C918.729 502.963 919.45 502.168 920.376 501.599C921.303 501.026 922.391 500.739 923.641 500.739C924.447 500.739 925.209 500.869 925.925 501.131C926.646 501.386 927.283 501.784 927.834 502.324C928.391 502.864 928.828 503.551 929.146 504.386C929.464 505.216 929.624 506.205 929.624 507.352V508.298H918.893V506.219H926.666C926.661 505.628 926.533 505.102 926.283 504.642C926.033 504.176 925.683 503.81 925.234 503.543C924.791 503.276 924.274 503.142 923.683 503.142C923.053 503.142 922.499 503.295 922.021 503.602C921.544 503.903 921.172 504.301 920.905 504.795C920.643 505.284 920.51 505.821 920.504 506.406V508.222C920.504 508.983 920.643 509.636 920.922 510.182C921.2 510.722 921.589 511.136 922.089 511.426C922.589 511.71 923.175 511.852 923.845 511.852C924.294 511.852 924.7 511.79 925.064 511.665C925.428 511.534 925.743 511.344 926.01 511.094C926.277 510.844 926.479 510.534 926.615 510.165L929.496 510.489C929.314 511.25 928.967 511.915 928.456 512.483C927.95 513.045 927.303 513.483 926.513 513.795C925.723 514.102 924.82 514.256 923.803 514.256ZM942.58 504.369L939.768 504.676C939.688 504.392 939.549 504.125 939.35 503.875C939.157 503.625 938.896 503.423 938.566 503.27C938.237 503.116 937.833 503.04 937.356 503.04C936.714 503.04 936.174 503.179 935.737 503.457C935.305 503.736 935.092 504.097 935.097 504.54C935.092 504.92 935.231 505.23 935.515 505.469C935.805 505.707 936.282 505.903 936.947 506.057L939.18 506.534C940.418 506.801 941.339 507.224 941.941 507.804C942.549 508.384 942.856 509.142 942.862 510.08C942.856 510.903 942.614 511.631 942.137 512.261C941.665 512.886 941.009 513.375 940.168 513.727C939.327 514.08 938.362 514.256 937.271 514.256C935.668 514.256 934.379 513.92 933.401 513.25C932.424 512.574 931.842 511.634 931.654 510.429L934.663 510.139C934.799 510.73 935.089 511.176 935.532 511.477C935.975 511.778 936.552 511.929 937.262 511.929C937.995 511.929 938.583 511.778 939.026 511.477C939.475 511.176 939.7 510.804 939.7 510.361C939.7 509.986 939.555 509.676 939.265 509.432C938.981 509.187 938.538 509 937.935 508.869L935.702 508.401C934.447 508.139 933.518 507.699 932.915 507.08C932.313 506.455 932.015 505.665 932.021 504.71C932.015 503.903 932.234 503.205 932.677 502.614C933.126 502.017 933.748 501.557 934.543 501.233C935.344 500.903 936.268 500.739 937.313 500.739C938.847 500.739 940.055 501.065 940.935 501.719C941.822 502.372 942.37 503.256 942.58 504.369Z" fill="#EEF35F"/>
<circle cx="590" cy="506" r="10" fill="#2EFF0C"/>
<path d="M164.242 361.451H195.758C192.794 368.559 187.107 374.246 180 377.21C172.893 374.246 167.206 368.559 164.242 361.451ZM207 338.073L216 348.28V356.951H144V348.28L153 338.073V311.952C153 296.277 164.27 282.942 180 278C195.73 282.942 207 296.277 207 311.952V338.073ZM180 320.951C184.971 320.951 189 316.922 189 311.952C189 306.981 184.971 302.952 180 302.952C175.029 302.952 171 306.981 171 311.952C171 316.922 175.029 320.951 180 320.951Z" fill="#EEF35F"/>
</svg>
