<svg width="945" height="655" viewBox="0 0 945 655" fill="none" xmlns="http://www.w3.org/2000/svg">
<rect width="945" height="655" fill="#0E0F11"/>
<line x1="340" y1="327.5" x2="945" y2="327.5" stroke="#EEF35F" stroke-dasharray="17 17"/>
<rect x="488.5" y="295.5" width="198" height="64" rx="32" fill="#0E0F11" stroke="#EEF35F"/>
<circle cx="350" cy="328" r="10" fill="#E21FDA"/>
<path d="M532.722 336V318.545H539.267C540.608 318.545 541.733 318.795 542.642 319.295C543.557 319.795 544.247 320.483 544.713 321.358C545.185 322.227 545.42 323.216 545.42 324.324C545.42 325.443 545.185 326.437 544.713 327.307C544.241 328.176 543.545 328.861 542.625 329.361C541.705 329.855 540.571 330.102 539.224 330.102H534.886V327.503H538.798C539.582 327.503 540.224 327.366 540.724 327.094C541.224 326.821 541.594 326.446 541.832 325.969C542.077 325.491 542.199 324.943 542.199 324.324C542.199 323.705 542.077 323.159 541.832 322.688C541.594 322.216 541.222 321.849 540.716 321.588C540.216 321.321 539.571 321.188 538.781 321.188H535.884V336H532.722ZM548.031 336V322.909H551.022V325.091H551.158C551.397 324.335 551.806 323.753 552.386 323.344C552.971 322.929 553.638 322.722 554.388 322.722C554.559 322.722 554.749 322.73 554.96 322.747C555.175 322.759 555.354 322.778 555.496 322.807V325.645C555.366 325.599 555.158 325.56 554.874 325.526C554.596 325.486 554.326 325.466 554.065 325.466C553.502 325.466 552.996 325.588 552.548 325.832C552.104 326.071 551.755 326.403 551.499 326.83C551.244 327.256 551.116 327.747 551.116 328.304V336H548.031ZM562.717 336.256C561.439 336.256 560.331 335.974 559.393 335.412C558.456 334.849 557.729 334.062 557.212 333.051C556.7 332.04 556.445 330.858 556.445 329.506C556.445 328.153 556.7 326.969 557.212 325.952C557.729 324.935 558.456 324.145 559.393 323.582C560.331 323.02 561.439 322.739 562.717 322.739C563.996 322.739 565.104 323.02 566.041 323.582C566.979 324.145 567.703 324.935 568.214 325.952C568.732 326.969 568.99 328.153 568.99 329.506C568.99 330.858 568.732 332.04 568.214 333.051C567.703 334.062 566.979 334.849 566.041 335.412C565.104 335.974 563.996 336.256 562.717 336.256ZM562.734 333.784C563.428 333.784 564.007 333.594 564.473 333.213C564.939 332.827 565.286 332.31 565.513 331.662C565.746 331.014 565.862 330.293 565.862 329.497C565.862 328.696 565.746 327.972 565.513 327.324C565.286 326.67 564.939 326.151 564.473 325.764C564.007 325.378 563.428 325.185 562.734 325.185C562.024 325.185 561.433 325.378 560.962 325.764C560.496 326.151 560.146 326.67 559.913 327.324C559.686 327.972 559.572 328.696 559.572 329.497C559.572 330.293 559.686 331.014 559.913 331.662C560.146 332.31 560.496 332.827 560.962 333.213C561.433 333.594 562.024 333.784 562.734 333.784ZM578.146 322.909V325.295H570.62V322.909H578.146ZM572.478 319.773H575.563V332.062C575.563 332.477 575.626 332.795 575.751 333.017C575.881 333.233 576.052 333.381 576.262 333.46C576.472 333.54 576.705 333.58 576.961 333.58C577.154 333.58 577.33 333.565 577.489 333.537C577.654 333.509 577.779 333.483 577.864 333.46L578.384 335.872C578.219 335.929 577.984 335.991 577.677 336.06C577.376 336.128 577.006 336.168 576.569 336.179C575.796 336.202 575.1 336.085 574.481 335.83C573.862 335.568 573.37 335.165 573.006 334.619C572.648 334.074 572.472 333.392 572.478 332.574V319.773ZM586.295 336.256C585.017 336.256 583.909 335.974 582.972 335.412C582.034 334.849 581.307 334.062 580.79 333.051C580.278 332.04 580.023 330.858 580.023 329.506C580.023 328.153 580.278 326.969 580.79 325.952C581.307 324.935 582.034 324.145 582.972 323.582C583.909 323.02 585.017 322.739 586.295 322.739C587.574 322.739 588.682 323.02 589.619 323.582C590.557 324.145 591.281 324.935 591.793 325.952C592.31 326.969 592.568 328.153 592.568 329.506C592.568 330.858 592.31 332.04 591.793 333.051C591.281 334.062 590.557 334.849 589.619 335.412C588.682 335.974 587.574 336.256 586.295 336.256ZM586.312 333.784C587.006 333.784 587.585 333.594 588.051 333.213C588.517 332.827 588.864 332.31 589.091 331.662C589.324 331.014 589.44 330.293 589.44 329.497C589.44 328.696 589.324 327.972 589.091 327.324C588.864 326.67 588.517 326.151 588.051 325.764C587.585 325.378 587.006 325.185 586.312 325.185C585.602 325.185 585.011 325.378 584.54 325.764C584.074 326.151 583.724 326.67 583.491 327.324C583.264 327.972 583.151 328.696 583.151 329.497C583.151 330.293 583.264 331.014 583.491 331.662C583.724 332.31 584.074 332.827 584.54 333.213C585.011 333.594 585.602 333.784 586.312 333.784ZM601.724 322.909V325.295H594.198V322.909H601.724ZM596.056 319.773H599.141V332.062C599.141 332.477 599.204 332.795 599.329 333.017C599.46 333.233 599.63 333.381 599.84 333.46C600.05 333.54 600.283 333.58 600.539 333.58C600.732 333.58 600.908 333.565 601.067 333.537C601.232 333.509 601.357 333.483 601.442 333.46L601.962 335.872C601.798 335.929 601.562 335.991 601.255 336.06C600.954 336.128 600.585 336.168 600.147 336.179C599.374 336.202 598.678 336.085 598.059 335.83C597.44 335.568 596.948 335.165 596.585 334.619C596.227 334.074 596.05 333.392 596.056 332.574V319.773ZM606.222 340.909C605.801 340.909 605.412 340.875 605.054 340.807C604.702 340.744 604.42 340.67 604.21 340.585L604.926 338.182C605.375 338.313 605.776 338.375 606.128 338.369C606.48 338.364 606.79 338.253 607.057 338.037C607.33 337.827 607.56 337.474 607.747 336.98L608.011 336.273L603.264 322.909H606.537L609.554 332.795H609.69L612.716 322.909H615.997L610.756 337.585C610.511 338.278 610.188 338.872 609.784 339.366C609.381 339.866 608.886 340.247 608.301 340.509C607.722 340.776 607.028 340.909 606.222 340.909ZM618.132 340.909V322.909H621.166V325.074H621.345C621.504 324.756 621.729 324.418 622.018 324.06C622.308 323.696 622.7 323.386 623.195 323.131C623.689 322.869 624.32 322.739 625.087 322.739C626.098 322.739 627.01 322.997 627.822 323.514C628.641 324.026 629.288 324.784 629.766 325.79C630.249 326.79 630.49 328.017 630.49 329.472C630.49 330.909 630.254 332.131 629.783 333.136C629.311 334.142 628.669 334.909 627.857 335.438C627.044 335.966 626.124 336.23 625.095 336.23C624.345 336.23 623.723 336.105 623.229 335.855C622.734 335.605 622.337 335.304 622.036 334.952C621.74 334.594 621.51 334.256 621.345 333.938H621.217V340.909H618.132ZM621.158 329.455C621.158 330.301 621.277 331.043 621.516 331.679C621.76 332.315 622.109 332.812 622.564 333.17C623.024 333.523 623.581 333.699 624.234 333.699C624.916 333.699 625.487 333.517 625.947 333.153C626.408 332.784 626.754 332.281 626.987 331.645C627.226 331.003 627.345 330.273 627.345 329.455C627.345 328.642 627.229 327.92 626.996 327.29C626.763 326.659 626.416 326.165 625.956 325.807C625.496 325.449 624.922 325.27 624.234 325.27C623.575 325.27 623.016 325.443 622.555 325.79C622.095 326.136 621.746 326.622 621.507 327.247C621.274 327.872 621.158 328.608 621.158 329.455ZM638.928 336.256C637.615 336.256 636.482 335.983 635.527 335.438C634.578 334.886 633.848 334.108 633.337 333.102C632.825 332.091 632.57 330.901 632.57 329.531C632.57 328.185 632.825 327.003 633.337 325.986C633.854 324.963 634.575 324.168 635.501 323.599C636.428 323.026 637.516 322.739 638.766 322.739C639.572 322.739 640.334 322.869 641.05 323.131C641.771 323.386 642.408 323.784 642.959 324.324C643.516 324.864 643.953 325.551 644.271 326.386C644.589 327.216 644.749 328.205 644.749 329.352V330.298H634.018V328.219H641.791C641.786 327.628 641.658 327.102 641.408 326.642C641.158 326.176 640.808 325.81 640.359 325.543C639.916 325.276 639.399 325.142 638.808 325.142C638.178 325.142 637.624 325.295 637.146 325.602C636.669 325.903 636.297 326.301 636.03 326.795C635.768 327.284 635.635 327.821 635.629 328.406V330.222C635.629 330.983 635.768 331.636 636.047 332.182C636.325 332.722 636.714 333.136 637.214 333.426C637.714 333.71 638.3 333.852 638.97 333.852C639.419 333.852 639.825 333.79 640.189 333.665C640.553 333.534 640.868 333.344 641.135 333.094C641.402 332.844 641.604 332.534 641.74 332.165L644.621 332.489C644.439 333.25 644.092 333.915 643.581 334.483C643.075 335.045 642.428 335.483 641.638 335.795C640.848 336.102 639.945 336.256 638.928 336.256Z" fill="#EEF35F"/>
<line x1="589.5" y1="360" x2="589.5" y2="507" stroke="#EEF35F" stroke-dasharray="17 17"/>
<line x1="589.999" y1="506.01" x2="845.001" y2="506.01" stroke="#EEF35F" stroke-dasharray="17 17"/>
<path d="M945 473H877.5C859.551 473 845 487.551 845 505.5V505.5C845 523.449 859.551 538 877.5 538H945" stroke="#EEF35F"/>
<path d="M903.955 499.196V496.545H917.881V499.196H912.486V514H909.349V499.196H903.955ZM924.326 514.256C923.013 514.256 921.88 513.983 920.925 513.438C919.977 512.886 919.246 512.108 918.735 511.102C918.224 510.091 917.968 508.901 917.968 507.531C917.968 506.185 918.224 505.003 918.735 503.986C919.252 502.963 919.974 502.168 920.9 501.599C921.826 501.026 922.914 500.739 924.164 500.739C924.971 500.739 925.732 500.869 926.448 501.131C927.17 501.386 927.806 501.784 928.357 502.324C928.914 502.864 929.352 503.551 929.67 504.386C929.988 505.216 930.147 506.205 930.147 507.352V508.298H919.417V506.219H927.19C927.184 505.628 927.056 505.102 926.806 504.642C926.556 504.176 926.207 503.81 925.758 503.543C925.315 503.276 924.798 503.142 924.207 503.142C923.576 503.142 923.022 503.295 922.545 503.602C922.067 503.903 921.695 504.301 921.428 504.795C921.167 505.284 921.033 505.821 921.028 506.406V508.222C921.028 508.983 921.167 509.636 921.445 510.182C921.724 510.722 922.113 511.136 922.613 511.426C923.113 511.71 923.698 511.852 924.369 511.852C924.817 511.852 925.224 511.79 925.587 511.665C925.951 511.534 926.266 511.344 926.533 511.094C926.8 510.844 927.002 510.534 927.138 510.165L930.019 510.489C929.837 511.25 929.491 511.915 928.979 512.483C928.474 513.045 927.826 513.483 927.036 513.795C926.246 514.102 925.343 514.256 924.326 514.256ZM943.104 504.369L940.291 504.676C940.212 504.392 940.072 504.125 939.874 503.875C939.68 503.625 939.419 503.423 939.089 503.27C938.76 503.116 938.357 503.04 937.879 503.04C937.237 503.04 936.697 503.179 936.26 503.457C935.828 503.736 935.615 504.097 935.621 504.54C935.615 504.92 935.754 505.23 936.038 505.469C936.328 505.707 936.805 505.903 937.47 506.057L939.703 506.534C940.942 506.801 941.862 507.224 942.464 507.804C943.072 508.384 943.379 509.142 943.385 510.08C943.379 510.903 943.138 511.631 942.661 512.261C942.189 512.886 941.533 513.375 940.692 513.727C939.851 514.08 938.885 514.256 937.794 514.256C936.192 514.256 934.902 513.92 933.925 513.25C932.947 512.574 932.365 511.634 932.178 510.429L935.186 510.139C935.322 510.73 935.612 511.176 936.055 511.477C936.499 511.778 937.075 511.929 937.786 511.929C938.518 511.929 939.107 511.778 939.55 511.477C939.999 511.176 940.223 510.804 940.223 510.361C940.223 509.986 940.078 509.676 939.788 509.432C939.504 509.187 939.061 509 938.459 508.869L936.226 508.401C934.97 508.139 934.041 507.699 933.439 507.08C932.837 506.455 932.538 505.665 932.544 504.71C932.538 503.903 932.757 503.205 933.2 502.614C933.649 502.017 934.271 501.557 935.067 501.233C935.868 500.903 936.791 500.739 937.837 500.739C939.371 500.739 940.578 501.065 941.459 501.719C942.345 502.372 942.893 503.256 943.104 504.369Z" fill="#EEF35F"/>
<circle cx="590" cy="506" r="10" fill="#2EFF0C"/>
<path d="M157.189 330.537L163.743 337.09L168.812 332.021L162.258 325.467L167.327 320.398L173.881 326.952L178.95 321.883L172.396 315.329L177.466 310.26L184.02 316.814L189.089 311.744L182.535 305.191L192.673 295.052C194.073 293.652 196.343 293.652 197.742 295.052L212.95 310.26C214.35 311.66 214.35 313.929 212.95 315.329L167.327 360.952C165.927 362.352 163.658 362.352 162.258 360.952L147.05 345.744C145.651 344.344 145.651 342.075 147.05 340.675L157.189 330.537ZM187.604 350.811L202.812 335.604L212.259 345.052V360.262H197.054L187.604 350.811ZM157.188 320.396L147.05 310.257C145.65 308.858 145.65 306.588 147.05 305.188L157.188 295.05C158.588 293.65 160.858 293.65 162.257 295.05L172.396 305.188L157.188 320.396Z" fill="#EEF35F"/>
</svg>
