<svg width="945" height="655" viewBox="0 0 945 655" fill="none" xmlns="http://www.w3.org/2000/svg">
<rect width="945" height="655" fill="#0E0F11"/>
<line x1="340" y1="327.5" x2="945" y2="327.5" stroke="#EEF35F" stroke-dasharray="17 17"/>
<rect x="488.5" y="295.5" width="198" height="64" rx="32" fill="#0E0F11" stroke="#EEF35F"/>
<circle cx="350" cy="328" r="10" fill="#E96A0E"/>
<path d="M536.722 336V318.545H543.267C544.608 318.545 545.733 318.778 546.642 319.244C547.557 319.71 548.247 320.364 548.713 321.205C549.185 322.04 549.42 323.014 549.42 324.128C549.42 325.247 549.182 326.219 548.705 327.043C548.233 327.861 547.537 328.494 546.616 328.943C545.696 329.386 544.565 329.608 543.224 329.608H538.562V326.983H542.798C543.582 326.983 544.224 326.875 544.724 326.659C545.224 326.437 545.594 326.116 545.832 325.696C546.077 325.27 546.199 324.747 546.199 324.128C546.199 323.509 546.077 322.98 545.832 322.543C545.588 322.099 545.216 321.764 544.716 321.537C544.216 321.304 543.571 321.188 542.781 321.188H539.884V336H536.722ZM545.739 328.091L550.06 336H546.531L542.287 328.091H545.739ZM557.803 336.256C556.49 336.256 555.357 335.983 554.402 335.438C553.453 334.886 552.723 334.108 552.212 333.102C551.7 332.091 551.445 330.901 551.445 329.531C551.445 328.185 551.7 327.003 552.212 325.986C552.729 324.963 553.45 324.168 554.376 323.599C555.303 323.026 556.391 322.739 557.641 322.739C558.447 322.739 559.209 322.869 559.925 323.131C560.646 323.386 561.283 323.784 561.834 324.324C562.391 324.864 562.828 325.551 563.146 326.386C563.464 327.216 563.624 328.205 563.624 329.352V330.298H552.893V328.219H560.666C560.661 327.628 560.533 327.102 560.283 326.642C560.033 326.176 559.683 325.81 559.234 325.543C558.791 325.276 558.274 325.142 557.683 325.142C557.053 325.142 556.499 325.295 556.021 325.602C555.544 325.903 555.172 326.301 554.905 326.795C554.643 327.284 554.51 327.821 554.504 328.406V330.222C554.504 330.983 554.643 331.636 554.922 332.182C555.2 332.722 555.589 333.136 556.089 333.426C556.589 333.71 557.175 333.852 557.845 333.852C558.294 333.852 558.7 333.79 559.064 333.665C559.428 333.534 559.743 333.344 560.01 333.094C560.277 332.844 560.479 332.534 560.615 332.165L563.496 332.489C563.314 333.25 562.967 333.915 562.456 334.483C561.95 335.045 561.303 335.483 560.513 335.795C559.723 336.102 558.82 336.256 557.803 336.256ZM576.58 326.369L573.768 326.676C573.688 326.392 573.549 326.125 573.35 325.875C573.157 325.625 572.896 325.423 572.566 325.27C572.237 325.116 571.833 325.04 571.356 325.04C570.714 325.04 570.174 325.179 569.737 325.457C569.305 325.736 569.092 326.097 569.097 326.54C569.092 326.92 569.231 327.23 569.515 327.469C569.805 327.707 570.282 327.903 570.947 328.057L573.18 328.534C574.418 328.801 575.339 329.224 575.941 329.804C576.549 330.384 576.856 331.142 576.862 332.08C576.856 332.903 576.614 333.631 576.137 334.261C575.665 334.886 575.009 335.375 574.168 335.727C573.327 336.08 572.362 336.256 571.271 336.256C569.668 336.256 568.379 335.92 567.401 335.25C566.424 334.574 565.842 333.634 565.654 332.429L568.663 332.139C568.799 332.73 569.089 333.176 569.532 333.477C569.975 333.778 570.552 333.929 571.262 333.929C571.995 333.929 572.583 333.778 573.026 333.477C573.475 333.176 573.7 332.804 573.7 332.361C573.7 331.986 573.555 331.676 573.265 331.432C572.981 331.187 572.538 331 571.935 330.869L569.702 330.401C568.447 330.139 567.518 329.699 566.915 329.08C566.313 328.455 566.015 327.665 566.021 326.71C566.015 325.903 566.234 325.205 566.677 324.614C567.126 324.017 567.748 323.557 568.543 323.233C569.344 322.903 570.268 322.739 571.313 322.739C572.847 322.739 574.055 323.065 574.935 323.719C575.822 324.372 576.37 325.256 576.58 326.369ZM585.201 336.256C583.888 336.256 582.755 335.983 581.8 335.438C580.852 334.886 580.121 334.108 579.61 333.102C579.099 332.091 578.843 330.901 578.843 329.531C578.843 328.185 579.099 327.003 579.61 325.986C580.127 324.963 580.849 324.168 581.775 323.599C582.701 323.026 583.789 322.739 585.039 322.739C585.846 322.739 586.607 322.869 587.323 323.131C588.045 323.386 588.681 323.784 589.232 324.324C589.789 324.864 590.227 325.551 590.545 326.386C590.863 327.216 591.022 328.205 591.022 329.352V330.298H580.292V328.219H588.065C588.059 327.628 587.931 327.102 587.681 326.642C587.431 326.176 587.082 325.81 586.633 325.543C586.19 325.276 585.673 325.142 585.082 325.142C584.451 325.142 583.897 325.295 583.42 325.602C582.942 325.903 582.57 326.301 582.303 326.795C582.042 327.284 581.908 327.821 581.903 328.406V330.222C581.903 330.983 582.042 331.636 582.32 332.182C582.599 332.722 582.988 333.136 583.488 333.426C583.988 333.71 584.573 333.852 585.244 333.852C585.692 333.852 586.099 333.79 586.462 333.665C586.826 333.534 587.141 333.344 587.408 333.094C587.675 332.844 587.877 332.534 588.013 332.165L590.894 332.489C590.712 333.25 590.366 333.915 589.854 334.483C589.349 335.045 588.701 335.483 587.911 335.795C587.121 336.102 586.218 336.256 585.201 336.256ZM597.399 336.264C596.57 336.264 595.822 336.116 595.158 335.821C594.499 335.52 593.976 335.077 593.589 334.491C593.209 333.906 593.018 333.185 593.018 332.327C593.018 331.588 593.155 330.977 593.428 330.494C593.7 330.011 594.072 329.625 594.544 329.335C595.016 329.045 595.547 328.827 596.138 328.679C596.734 328.526 597.351 328.415 597.987 328.347C598.754 328.267 599.376 328.196 599.854 328.134C600.331 328.065 600.678 327.963 600.893 327.827C601.115 327.685 601.226 327.466 601.226 327.17V327.119C601.226 326.477 601.036 325.98 600.655 325.628C600.274 325.276 599.726 325.099 599.01 325.099C598.254 325.099 597.655 325.264 597.212 325.594C596.774 325.923 596.479 326.312 596.325 326.761L593.445 326.352C593.672 325.557 594.047 324.892 594.57 324.358C595.092 323.818 595.732 323.415 596.487 323.148C597.243 322.875 598.078 322.739 598.993 322.739C599.624 322.739 600.251 322.812 600.876 322.96C601.501 323.108 602.072 323.352 602.589 323.693C603.107 324.028 603.521 324.486 603.834 325.065C604.152 325.645 604.311 326.369 604.311 327.239V336H601.345V334.202H601.243C601.055 334.565 600.791 334.906 600.45 335.224C600.115 335.537 599.692 335.79 599.18 335.983C598.675 336.17 598.081 336.264 597.399 336.264ZM598.2 333.997C598.82 333.997 599.357 333.875 599.811 333.631C600.266 333.381 600.615 333.051 600.859 332.642C601.109 332.233 601.234 331.787 601.234 331.304V329.761C601.138 329.841 600.973 329.915 600.74 329.983C600.513 330.051 600.257 330.111 599.973 330.162C599.689 330.213 599.408 330.259 599.129 330.298C598.851 330.338 598.609 330.372 598.405 330.401C597.945 330.463 597.533 330.565 597.169 330.707C596.805 330.849 596.518 331.048 596.308 331.304C596.098 331.554 595.993 331.878 595.993 332.276C595.993 332.844 596.2 333.273 596.615 333.562C597.03 333.852 597.558 333.997 598.2 333.997ZM607.413 336V322.909H610.405V325.091H610.541C610.78 324.335 611.189 323.753 611.768 323.344C612.354 322.929 613.021 322.722 613.771 322.722C613.942 322.722 614.132 322.73 614.342 322.747C614.558 322.759 614.737 322.778 614.879 322.807V325.645C614.749 325.599 614.541 325.56 614.257 325.526C613.979 325.486 613.709 325.466 613.447 325.466C612.885 325.466 612.379 325.588 611.93 325.832C611.487 326.071 611.138 326.403 610.882 326.83C610.626 327.256 610.499 327.747 610.499 328.304V336H607.413ZM622.1 336.256C620.793 336.256 619.671 335.969 618.734 335.395C617.802 334.821 617.083 334.028 616.577 333.017C616.077 332 615.827 330.83 615.827 329.506C615.827 328.176 616.083 327.003 616.594 325.986C617.106 324.963 617.827 324.168 618.759 323.599C619.697 323.026 620.805 322.739 622.083 322.739C623.146 322.739 624.086 322.935 624.904 323.327C625.728 323.713 626.384 324.261 626.873 324.972C627.362 325.676 627.64 326.5 627.708 327.443H624.759C624.64 326.812 624.356 326.287 623.907 325.866C623.464 325.44 622.87 325.227 622.126 325.227C621.495 325.227 620.941 325.398 620.464 325.739C619.987 326.074 619.614 326.557 619.347 327.188C619.086 327.818 618.955 328.574 618.955 329.455C618.955 330.347 619.086 331.114 619.347 331.756C619.609 332.392 619.975 332.884 620.447 333.23C620.924 333.571 621.484 333.741 622.126 333.741C622.58 333.741 622.987 333.656 623.344 333.486C623.708 333.31 624.012 333.057 624.256 332.727C624.501 332.398 624.668 331.997 624.759 331.526H627.708C627.634 332.452 627.362 333.273 626.89 333.989C626.418 334.699 625.776 335.256 624.964 335.659C624.151 336.057 623.197 336.256 622.1 336.256ZM633.327 328.33V336H630.241V318.545H633.259V325.134H633.412C633.719 324.395 634.193 323.812 634.835 323.386C635.483 322.955 636.307 322.739 637.307 322.739C638.216 322.739 639.009 322.929 639.685 323.31C640.361 323.69 640.884 324.247 641.253 324.98C641.628 325.713 641.815 326.608 641.815 327.665V336H638.73V328.142C638.73 327.261 638.503 326.577 638.048 326.088C637.599 325.594 636.969 325.347 636.156 325.347C635.611 325.347 635.122 325.466 634.69 325.705C634.264 325.937 633.929 326.276 633.685 326.719C633.446 327.162 633.327 327.699 633.327 328.33Z" fill="#EEF35F"/>
<line x1="589.5" y1="360" x2="589.5" y2="507" stroke="#EEF35F" stroke-dasharray="17 17"/>
<line x1="589.999" y1="506.01" x2="845.001" y2="506.01" stroke="#EEF35F" stroke-dasharray="17 17"/>
<path d="M945 473H877.5C859.551 473 845 487.551 845 505.5V505.5C845 523.449 859.551 538 877.5 538H945" stroke="#EEF35F"/>
<path d="M912.884 496.545V514H909.722V496.545H912.884ZM921.029 514.23C920.001 514.23 919.08 513.966 918.268 513.438C917.455 512.909 916.813 512.142 916.342 511.136C915.87 510.131 915.634 508.909 915.634 507.472C915.634 506.017 915.873 504.79 916.35 503.79C916.833 502.784 917.484 502.026 918.302 501.514C919.12 500.997 920.032 500.739 921.038 500.739C921.805 500.739 922.435 500.869 922.93 501.131C923.424 501.386 923.816 501.696 924.106 502.06C924.396 502.418 924.62 502.756 924.779 503.074H924.907V496.545H928.001V514H924.967V511.938H924.779C924.62 512.256 924.39 512.594 924.089 512.952C923.788 513.304 923.39 513.605 922.896 513.855C922.401 514.105 921.779 514.23 921.029 514.23ZM921.89 511.699C922.543 511.699 923.1 511.523 923.56 511.17C924.021 510.812 924.37 510.315 924.609 509.679C924.847 509.043 924.967 508.301 924.967 507.455C924.967 506.608 924.847 505.872 924.609 505.247C924.376 504.622 924.029 504.136 923.569 503.79C923.114 503.443 922.555 503.27 921.89 503.27C921.202 503.27 920.629 503.449 920.168 503.807C919.708 504.165 919.362 504.659 919.129 505.29C918.896 505.92 918.779 506.642 918.779 507.455C918.779 508.273 918.896 509.003 919.129 509.645C919.367 510.281 919.717 510.784 920.177 511.153C920.643 511.517 921.214 511.699 921.89 511.699ZM937.084 514.256C935.771 514.256 934.638 513.983 933.683 513.438C932.734 512.886 932.004 512.108 931.493 511.102C930.982 510.091 930.726 508.901 930.726 507.531C930.726 506.185 930.982 505.003 931.493 503.986C932.01 502.963 932.732 502.168 933.658 501.599C934.584 501.026 935.672 500.739 936.922 500.739C937.729 500.739 938.49 500.869 939.206 501.131C939.928 501.386 940.564 501.784 941.115 502.324C941.672 502.864 942.109 503.551 942.428 504.386C942.746 505.216 942.905 506.205 942.905 507.352V508.298H932.175V506.219H939.947C939.942 505.628 939.814 505.102 939.564 504.642C939.314 504.176 938.964 503.81 938.516 503.543C938.072 503.276 937.555 503.142 936.964 503.142C936.334 503.142 935.78 503.295 935.303 503.602C934.825 503.903 934.453 504.301 934.186 504.795C933.925 505.284 933.791 505.821 933.786 506.406V508.222C933.786 508.983 933.925 509.636 934.203 510.182C934.482 510.722 934.871 511.136 935.371 511.426C935.871 511.71 936.456 511.852 937.126 511.852C937.575 511.852 937.982 511.79 938.345 511.665C938.709 511.534 939.024 511.344 939.291 511.094C939.558 510.844 939.76 510.534 939.896 510.165L942.777 510.489C942.595 511.25 942.249 511.915 941.737 512.483C941.232 513.045 940.584 513.483 939.794 513.795C939.004 514.102 938.101 514.256 937.084 514.256Z" fill="#EEF35F"/>
<circle cx="590" cy="506" r="10" fill="#2EFF0C"/>
<path d="M156 293.667V311H204V293.667H212.026C214.221 293.667 216 295.595 216 297.971V367.362C216 369.739 214.22 371.667 212.026 371.667H147.974C145.779 371.667 144 369.739 144 367.362V297.971C144 295.594 145.78 293.667 147.974 293.667H156ZM168 350H160V358.667H168V350ZM168 337H160V345.667H168V337ZM168 324H160V332.667H168V324ZM196 285V302.333H164V285H196Z" fill="#EEF35F"/>
</svg>
