<svg width="79" height="28" viewBox="0 0 79 28" fill="none" xmlns="http://www.w3.org/2000/svg">
<path d="M23.6903 10.7273L25.5831 16.4517H25.6577L27.5469 10.7273H28.9957L26.4318 18H24.8054L22.245 10.7273H23.6903ZM32.5708 18.1385C31.9861 18.1385 31.4842 17.9905 31.0652 17.6946C30.6485 17.3963 30.3277 16.9666 30.1028 16.4055C29.8803 15.8421 29.769 15.1638 29.769 14.3707C29.7714 13.5777 29.8838 12.9029 30.1064 12.3466C30.3313 11.7879 30.652 11.3617 31.0687 11.0682C31.4877 10.7746 31.9885 10.6278 32.5708 10.6278C33.1532 10.6278 33.6539 10.7746 34.073 11.0682C34.492 11.3617 34.8128 11.7879 35.0353 12.3466C35.2602 12.9053 35.3727 13.58 35.3727 14.3707C35.3727 15.1662 35.2602 15.8456 35.0353 16.4091C34.8128 16.9702 34.492 17.3987 34.073 17.6946C33.6563 17.9905 33.1556 18.1385 32.5708 18.1385ZM32.5708 17.027C33.0254 17.027 33.3841 16.8033 33.6468 16.3558C33.912 15.906 34.0446 15.2443 34.0446 14.3707C34.0446 13.7931 33.9842 13.3078 33.8635 12.9148C33.7427 12.5218 33.5723 12.2259 33.3521 12.027C33.1319 11.8258 32.8715 11.7251 32.5708 11.7251C32.1187 11.7251 31.7612 11.95 31.4984 12.3999C31.2356 12.8473 31.103 13.5043 31.1007 14.3707C31.0983 14.9508 31.1563 15.4384 31.2747 15.8338C31.3954 16.2292 31.5659 16.5275 31.786 16.7287C32.0062 16.9276 32.2678 17.027 32.5708 17.027ZM39.5107 10.7273V18H38.1932V12.0092H38.1506L36.4496 13.0959V11.8885L38.2571 10.7273H39.5107ZM41.763 18.0781C41.5475 18.0781 41.3629 18.0024 41.209 17.8509C41.0551 17.6993 40.9793 17.5147 40.9817 17.2969C40.9793 17.0838 41.0551 16.9015 41.209 16.75C41.3629 16.5985 41.5475 16.5227 41.763 16.5227C41.9713 16.5227 42.1524 16.5985 42.3063 16.75C42.4625 16.9015 42.5418 17.0838 42.5442 17.2969C42.5418 17.4413 42.504 17.5727 42.4306 17.6911C42.3596 17.8094 42.2649 17.9041 42.1465 17.9751C42.0305 18.0438 41.9026 18.0781 41.763 18.0781ZM46.2978 18.0994C45.8243 18.0994 45.4005 18.0107 45.0265 17.8331C44.6524 17.6532 44.3553 17.407 44.1351 17.0945C43.9173 16.782 43.8013 16.4245 43.7871 16.022H45.0655C45.0892 16.3203 45.2182 16.5642 45.4526 16.7536C45.687 16.9406 45.9687 17.0341 46.2978 17.0341C46.5558 17.0341 46.7855 16.9749 46.9867 16.8565C47.1879 16.7382 47.3465 16.5736 47.4625 16.3629C47.5785 16.1522 47.6354 15.9119 47.633 15.642C47.6354 15.3674 47.5774 15.1236 47.459 14.9105C47.3406 14.6974 47.1784 14.5305 46.9725 14.4098C46.7665 14.2867 46.5298 14.2251 46.2623 14.2251C46.0444 14.2228 45.8302 14.263 45.6195 14.3459C45.4088 14.4287 45.2419 14.5376 45.1188 14.6726L43.9292 14.4773L44.3091 10.7273H48.5279V11.8281H45.3993L45.1898 13.7564H45.2324C45.3674 13.5978 45.5579 13.4664 45.8042 13.3622C46.0504 13.2557 46.3203 13.2024 46.6138 13.2024C47.0542 13.2024 47.4471 13.3066 47.7928 13.5149C48.1384 13.7209 48.4107 14.005 48.6096 14.3672C48.8084 14.7294 48.9078 15.1437 48.9078 15.6101C48.9078 16.0907 48.7966 16.5192 48.574 16.8956C48.3539 17.2696 48.0473 17.5644 47.6543 17.7798C47.2637 17.9929 46.8115 18.0994 46.2978 18.0994ZM52.7857 18.1385C52.2009 18.1385 51.699 17.9905 51.28 17.6946C50.8633 17.3963 50.5426 16.9666 50.3176 16.4055C50.0951 15.8421 49.9838 15.1638 49.9838 14.3707C49.9862 13.5777 50.0987 12.9029 50.3212 12.3466C50.5461 11.7879 50.8669 11.3617 51.2836 11.0682C51.7026 10.7746 52.2033 10.6278 52.7857 10.6278C53.3681 10.6278 53.8688 10.7746 54.2878 11.0682C54.7069 11.3617 55.0276 11.7879 55.2502 12.3466C55.4751 12.9053 55.5875 13.58 55.5875 14.3707C55.5875 15.1662 55.4751 15.8456 55.2502 16.4091C55.0276 16.9702 54.7069 17.3987 54.2878 17.6946C53.8712 17.9905 53.3704 18.1385 52.7857 18.1385ZM52.7857 17.027C53.2402 17.027 53.5989 16.8033 53.8617 16.3558C54.1268 15.906 54.2594 15.2443 54.2594 14.3707C54.2594 13.7931 54.199 13.3078 54.0783 12.9148C53.9576 12.5218 53.7871 12.2259 53.5669 12.027C53.3468 11.8258 53.0864 11.7251 52.7857 11.7251C52.3335 11.7251 51.976 11.95 51.7132 12.3999C51.4505 12.8473 51.3179 13.5043 51.3155 14.3707C51.3132 14.9508 51.3712 15.4384 51.4895 15.8338C51.6103 16.2292 51.7807 16.5275 52.0009 16.7287C52.2211 16.9276 52.4827 17.027 52.7857 17.027Z" fill="#EEF35F"/>
<rect x="0.5" y="0.5" width="78" height="27" rx="13.5" stroke="#EEF35F"/>
</svg>
